Coordinates
version=1
nRows=7
nColumns=46
inDegrees=yes

Units are S.I. units (second, meters, Newtons, ...)
Angles are in degrees.

endheader
time	pelvis_tilt	pelvis_list	pelvis_rotation	pelvis_tx	pelvis_ty	pelvis_tz	bb_angle	bb_tx	bb_ty	bb_tz	hip_flexion_r	hip_adduction_r	hip_rotation_r	knee_angle_r	knee_angle_r_beta	ankle_angle_r	subtalar_angle_r	mtp_angle_r	crank_angle_r	hip_flexion_l	hip_adduction_l	hip_rotation_l	knee_angle_l	knee_angle_l_beta	ankle_angle_l	subtalar_angle_l	mtp_angle_l	crank_angle_l	lumbar_extension	lumbar_bending	lumbar_rotation	arm_flex_r	arm_add_r	arm_rot_r	elbow_flex_r	pro_sup_r	wrist_flex_r	wrist_dev_r	arm_flex_l	arm_add_l	arm_rot_l	elbow_flex_l	pro_sup_l	wrist_flex_l	wrist_dev_l
      2.50500000	    -17.84184683	      0.26596753	     -2.63918102	      0.13149864	      1.13988663	     -0.28327603	      0.00000000	      0.50000000	      0.00000000	      0.25000000	     66.81916997	     -1.67645600	      4.63812584	     56.54422166	      0.98688284	      2.35986926	     -6.92160633	      0.00000000	      0.00000000	     66.98674936	     -8.69812323	     -0.38248723	     92.07690963	      1.60704524	     -2.86216102	     -9.11481617	      0.00000000	      0.00000000	    -56.79308957	      4.31943445	     -3.57851025	     82.46691931	    -11.76672388	     34.33747295	     65.87622984	     45.52290068	      0.00000000	      0.00000000	     74.41130960	    -35.45093997	     33.32910433	     71.14458268	     49.92094181	      0.00000000	      0.00000000
      2.51000000	    -17.59291396	      0.53382676	     -2.47339146	      0.13261553	      1.14055658	     -0.28353528	      0.00000000	      0.50000000	      0.00000000	      0.25000000	     65.81312290	     -2.14803429	      4.52937645	     55.42627850	      0.96737105	      1.48699706	     -6.61756575	      0.00000000	      0.00000000	     67.37401605	     -8.44477630	     -0.46394394	     93.11070843	      1.62508843	     -2.74007775	     -9.07389547	      0.00000000	      0.00000000	    -56.95210268	      4.13723165	     -3.98176667	     82.31901451	    -11.73287013	     34.22825562	     65.73582945	     45.49610984	      0.00000000	      0.00000000	     74.41549206	    -35.31821427	     33.36845781	     71.14593275	     49.93934942	      0.00000000	      0.00000000
      2.51500000	    -17.33240445	      0.79286225	     -2.29012980	      0.13372666	      1.14125732	     -0.28375091	      0.00000000	      0.50000000	      0.00000000	      0.25000000	     64.77398083	     -2.63119540	      4.37404221	     54.30396887	      0.94778305	      0.54686256	     -6.22519134	      0.00000000	      0.00000000	     67.75735714	     -8.20312913	     -0.52209598	     94.11870457	      1.64268128	     -2.63318647	     -8.99085462	      0.00000000	      0.00000000	    -57.12844307	      3.96554212	     -4.36732997	     82.13534804	    -11.70945774	     34.12518336	     65.57614545	     45.46687635	      0.00000000	      0.00000000	     74.43938611	    -35.18283725	     33.40062501	     71.12606908	     49.95201670	      0.00000000	      0.00000000
      2.52000000	    -17.11405797	      1.08976668	     -2.21458556	      0.13482829	      1.14198753	     -0.28418198	      0.00000000	      0.50000000	      0.00000000	      0.25000000	     63.76026004	     -3.10165337	      4.22751594	     53.13650850	      0.92740703	     -0.40984568	     -5.72600918	      0.00000000	      0.00000000	     68.16625403	     -8.01031261	     -0.66894293	     95.10884544	      1.65996250	     -2.52074114	     -8.90750935	      0.00000000	      0.00000000	    -57.26210908	      3.70522694	     -4.72833409	     81.98903685	    -11.66327098	     34.04260622	     65.42680596	     45.44101503	      0.00000000	      0.00000000	     74.44094924	    -35.02920977	     33.43186738	     71.07846435	     49.96020016	      0.00000000	      0.00000000
      2.52500000	    -16.63529996	      1.24423751	     -1.87415173	      0.13574028	      1.14297097	     -0.28411963	      0.00000000	      0.50000000	      0.00000000	      0.25000000	     62.43464893	     -3.62725829	      3.90201618	     52.03085135	      0.90810967	     -1.20823998	     -5.54469727	      0.00000000	      0.00000000	     68.39701703	     -7.74518391	     -0.57678669	     96.09633717	      1.67719748	     -2.35345423	     -8.65164758	      0.00000000	      0.00000000	    -57.67331039	      3.70778605	     -5.11557876	     81.91803039	    -11.35032386	     33.70065417	     64.96302765	     45.35368544	      0.00000000	      0.00000000	     74.67947786	    -34.84177227	     33.43994444	     70.73866645	     49.95647930	      0.00000000	      0.00000000
      2.53000000	    -16.50670869	      1.52890619	     -1.72149016	      0.13661693	      1.14334351	     -0.28409183	      0.00000000	      0.50000000	      0.00000000	      0.25000000	     61.53793271	     -4.07911700	      3.75637714	     50.95121115	      0.88926639	     -2.00524583	     -5.08707375	      0.00000000	      0.00000000	     68.97954460	     -7.54562236	     -0.65190364	     97.07266515	      1.69423762	     -2.29798271	     -8.51374301	      0.00000000	      0.00000000	    -57.68437667	      3.40702659	     -5.53846275	     81.68913034	    -11.36407747	     33.69573229	     64.85435840	     45.34288285	      0.00000000	      0.00000000	     74.66010577	    -34.67832480	     33.51840373	     70.71597880	     49.97159030	      0.00000000	      0.00000000
      2.53500000	    -16.22891211	      1.62145269	     -1.45191862	      0.13758817	      1.14403726	     -0.28426573	      0.00000000	      0.50000000	      0.00000000	      0.25000000	     60.38708372	     -4.54881532	      3.31760294	     49.80390208	      0.86924207	     -2.89181023	     -4.71469121	      0.00000000	      0.00000000	     69.44065636	     -7.37030480	     -0.52140320	     98.04776317	      1.71125629	     -2.03465496	     -7.97673050	      0.00000000	      0.00000000	    -57.87474956	      3.43936534	     -5.80462448	     81.52998421	    -11.18432900	     33.53089410	     64.54976469	     45.29667498	      0.00000000	      0.00000000	     74.74148593	    -34.49242160	     33.56260461	     70.46797644	     49.97257931	      0.00000000	      0.00000000
